<?xml version="1.0" encoding="utf-8"?>
<svg version="1.1" id="Layer_1" x="0px" y="0px" width="506.1px" height="105.9px" viewBox="0 0 506.1 105.9" style="enable-background:new 0 0 506.1 105.9;" xmlns="http://www.w3.org/2000/svg">
  <style type="text/css">
	.st0{fill-rule:evenodd;clip-rule:evenodd;fill:#24292D;}
	.st1{fill-rule:evenodd;clip-rule:evenodd;fill:#F16623;}
	.st2{fill:#F16623;}
	.st3{fill:#24292D;}
</style>
  <g>
    <path class="st0" d="M98,42.5L51.1,69.6c0,0-2.1-17,9.3-25.6c9.4-7.1,31.6-19,31.6-19"/>
    <path class="st1" d="M14.4,70.7c1.1,3.9,2.7,7.6,4.8,11.3c0.9,1.6,1.9,3.1,2.9,4.5L3.5,97.3c0,0-2-17,9.4-25.5 C13.3,71.5,13.8,71.1,14.4,70.7z"/>
    <path class="st0" d="M123.5,40.4c3.5,21-8.1,46.7-27.6,58c-25.1,14.5-57.2,5.9-71.7-19.2C9.7,54,18.3,21.9,43.4,7.4 c25.1-14.5,57.2-5.9,71.7,19.2c0.2,0.4,2.2,3.9,2.3,4.7L97.1,43c-0.4-0.8-1.7-4-2.1-4.7C86.9,24.3,68.4,18,54.4,26 c-14,8.1-20,28-11.9,42c8.1,14,28.8,20.6,42.7,12.6c4.5-2.6,12.9-8.9,16.6-18.4C106.9,49.1,111.8,45.1,123.5,40.4z"/>
    <path class="st2" d="M170.1,85.6h-12.3c-0.8,0-1.5-0.7-1.5-1.5v-68c0-0.8,0.7-1.5,1.5-1.5h12.3c0.8,0,1.5,0.7,1.5,1.5v68 C171.6,84.9,170.9,85.6,170.1,85.6z M202.7,26.9h-34.4c-0.8,0-1.5-0.7-1.5-1.5v-9.4c0-0.8,0.7-1.5,1.5-1.5h34.4 c0.8,0,1.5,0.7,1.5,1.5v9.4C204.2,26.3,203.5,26.9,202.7,26.9z M197.8,55.1h-29.6c-0.8,0-1.5-0.7-1.5-1.5v-8.9 c0-0.8,0.7-1.5,1.5-1.5h29.6c0.8,0,1.5,0.7,1.5,1.5v8.9C199.4,54.4,198.7,55.1,197.8,55.1z M202.7,85.6h-34.5 c-0.8,0-1.5-0.7-1.5-1.5v-9.3c0-0.8,0.7-1.5,1.5-1.5h34.5c0.8,0,1.5,0.7,1.5,1.5v9.3C204.2,84.9,203.6,85.6,202.7,85.6z"/>
    <path class="st3" d="M209.4,58.8c0-5.4,0.8-10.1,2.4-14.1s4-7.2,7-9.5c3.1-2.3,6.8-3.4,11.3-3.4c4.1,0,7.6,1.2,10.4,3.5 c2.8,2.4,5,5.6,6.6,9.7c1.6,4.1,2.7,8.7,3.3,13.8c0,0.1,0,0.1,0,0.2v1c0,0.1,0,0.1,0,0.2c-0.6,4.9-1.7,9.3-3.3,13.3 c-1.6,4-3.8,7.2-6.6,9.5c-2.8,2.4-6.3,3.5-10.5,3.5c-4.4,0-8.1-1.2-11.2-3.5c-3.1-2.3-5.4-5.5-7-9.5c-1.6-4-2.4-8.6-2.4-13.7V58.8z M224.2,59.8c0,2.7,0.3,5.2,0.9,7.5c0.6,2.2,1.6,4,3,5.3c1.4,1.3,3.3,2,5.7,2c2.3,0,4.3-0.5,5.8-1.6c1.5-1.1,2.6-2.5,3.4-4.4 c0.8-1.9,1.2-4,1.4-6.5c0,0,0-0.1,0-0.1l0-5c-0.1-2.1-0.3-4-0.8-5.6c-0.5-1.6-1.1-3-2-4.2s-1.9-2-3.2-2.6c-1.3-0.6-2.8-0.9-4.5-0.9 c-2.3,0-4.2,0.7-5.7,2c-1.4,1.3-2.5,3.1-3.1,5.4c-0.6,2.3-1,4.8-1,7.7V59.8z M244.1,10.6h11.8c0.8,0,1.5,0.7,1.5,1.5v71.9 c0,0.8-0.7,1.5-1.5,1.5h-10.5c-0.8,0-1.4-0.6-1.5-1.3L242.6,74c0-0.1,0-0.1,0-0.2V12.2C242.6,11.3,243.3,10.6,244.1,10.6z"/>
    <path class="st3" d="M303.3,61.9c0.9,0,1.6,0.7,1.6,1.6c-0.1,4.1-0.9,7.8-2.1,11.1c-1.4,3.7-3.6,6.7-6.5,8.8 c-2.9,2.1-6.6,3.2-11,3.2c-5.2,0-9.4-1.5-12.7-4.6c-3.2-3-4.9-8.1-4.9-15.1V34.3c0-0.8,0.7-1.5,1.5-1.5h11.7c0.8,0,1.5,0.7,1.5,1.5 v32.8c0,1.8,0.3,3.2,0.9,4.4c0.6,1.1,1.4,1.9,2.5,2.4c1.1,0.5,2.3,0.8,3.7,0.8c2.8,0,5.1-0.6,6.7-1.7c1.6-1.1,2.8-2.6,3.4-4.5 c0.5-1.5,0.9-3.2,1-5.1c0-0.8,0.7-1.4,1.5-1.4L303.3,61.9z M300.6,32.8h11.7c0.8,0,1.5,0.7,1.5,1.5v49.8c0,0.8-0.7,1.5-1.5,1.5 h-10.9c-0.8,0-1.5-0.6-1.5-1.4L299,72.9c0,0,0-0.1,0-0.1V34.3C299,33.5,299.7,32.8,300.6,32.8z"/>
    <path class="st3" d="M 434.243 104.8 L 422.543 104.8 C 421.743 104.8 421.043 104.1 421.043 103.3 L 421.043 33.2 C 421.043 32.4 421.743 31.7 422.543 31.7 L 433.343 31.7 C 434.143 31.7 434.743 32.3 434.843 33.1 L 435.743 41.8 C 435.743 41.9 435.743 41.9 435.743 42 L 435.743 103.4 C 435.843 104.2 435.143 104.8 434.243 104.8 Z M 469.043 58.6 C 469.043 63.7 468.243 68.3 466.643 72.4 C 465.043 76.5 462.743 79.7 459.743 82 C 456.743 84.4 452.943 85.5 448.443 85.5 C 444.143 85.5 440.543 84.3 437.743 82 C 434.943 79.6 432.843 76.5 431.243 72.5 C 429.743 68.5 428.643 64.1 427.943 59.3 C 427.943 59.2 427.943 59.1 427.943 59.1 L 427.943 57.8 C 427.943 57.7 427.943 57.7 427.943 57.6 C 428.643 52.5 429.643 47.9 431.243 43.9 C 432.743 39.8 434.943 36.7 437.743 34.3 C 440.543 32 444.043 30.8 448.343 30.8 C 452.843 30.8 456.543 31.9 459.643 34.1 C 462.743 36.3 465.043 39.5 466.643 43.5 C 468.243 47.5 469.043 52.2 469.043 57.6 L 469.043 58.6 Z M 454.243 57.5 C 454.243 54.6 453.943 52.1 453.243 49.9 C 452.643 47.7 451.543 45.9 450.143 44.6 C 448.743 43.3 446.843 42.7 444.443 42.7 C 442.643 42.7 441.043 43 439.743 43.6 C 438.443 44.2 437.443 45 436.543 46.1 C 435.743 47.2 435.143 48.6 434.643 50.2 C 434.243 51.8 434.043 53.7 433.943 55.8 L 433.943 61.1 C 433.943 61.1 433.943 61.2 433.943 61.2 C 434.043 63.6 434.443 65.7 435.143 67.6 C 435.843 69.5 436.943 71 438.443 72.1 C 439.943 73.2 441.943 73.7 444.443 73.7 C 446.843 73.7 448.743 73 450.143 71.6 C 451.543 70.2 452.543 68.4 453.143 66.1 C 453.743 63.8 454.043 61.3 454.043 58.6 L 454.043 57.5 L 454.243 57.5 Z"/>
    <path class="st3" d="M 362.803 57.7 C 362.803 52.6 363.803 48 365.703 43.9 C 367.603 39.8 370.503 36.6 374.203 34.3 C 377.903 32 382.503 30.8 387.803 30.8 C 393.203 30.8 397.803 32 401.503 34.3 C 405.203 36.6 408.103 39.8 410.003 43.9 C 411.903 48 412.903 52.6 412.903 57.7 L 412.903 58.7 C 412.903 63.8 411.903 68.4 410.003 72.5 C 408.103 76.6 405.203 79.8 401.503 82.1 C 397.803 84.4 393.203 85.6 387.803 85.6 C 382.403 85.6 377.903 84.4 374.103 82.1 C 370.303 79.8 367.503 76.6 365.503 72.5 C 363.503 68.4 362.603 63.8 362.603 58.7 L 362.603 57.7 L 362.803 57.7 Z M 377.603 58.8 C 377.603 61.6 377.903 64.1 378.603 66.4 C 379.303 68.7 380.403 70.5 381.903 71.8 C 383.403 73.1 385.503 73.8 388.003 73.8 C 390.503 73.8 392.603 73.1 394.103 71.8 C 395.603 70.5 396.703 68.7 397.403 66.4 C 398.103 64.1 398.403 61.6 398.403 58.8 L 398.403 57.8 C 398.403 55.1 398.103 52.6 397.403 50.3 C 396.703 48 395.603 46.2 394.103 44.8 C 392.603 43.4 390.503 42.7 387.903 42.7 C 385.403 42.7 383.303 43.4 381.803 44.8 C 380.303 46.2 379.203 48 378.603 50.3 C 377.903 52.6 377.603 55.1 377.603 57.8 L 377.603 58.8 L 377.603 58.8 Z"/>
    <path class="st3" d="M 353.7 42.7 L 325.6 42.7 C 324.8 42.7 324.1 42 324.1 41.2 L 324.1 33.5 C 324.1 32.7 324.8 32 325.6 32 L 353.7 32 C 354.5 32 355.2 32.7 355.2 33.5 L 355.2 41.2 C 355.2 42.1 354.6 42.7 353.7 42.7 Z M 344.8 19 C 345.6 19 346.3 19.7 346.3 20.5 L 346.3 68.3 C 346.3 69.7 346.5 70.8 346.9 71.6 C 347.3 72.4 347.9 72.9 348.7 73.2 C 349.5 73.5 350.5 73.6 351.7 73.6 C 352.6 73.6 353.4 73.6 354 73.5 L 354.1 73.5 C 355 73.4 355.8 74.1 355.8 75 L 355.8 83.2 C 355.8 83.9 355.3 84.5 354.7 84.7 C 353.8 85 352.9 85.2 351.9 85.3 C 350.5 85.5 348.9 85.6 347.1 85.6 C 343.9 85.6 341.2 85.1 338.9 84 C 336.6 82.9 334.8 81.2 333.5 78.9 C 332.2 76.6 331.6 73.5 331.6 69.7 L 331.6 20.5 C 331.6 19.7 332.3 19 333.1 19 L 344.8 19 Z"/>
  </g>
</svg>