<?xml version="1.0" encoding="utf-8"?>
<svg version="1.1" id="Layer_1" x="0px" y="0px" width="506.1px" height="105.9px" viewBox="0 0 506.1 105.9"
     style="enable-background:new 0 0 506.1 105.9;" xmlns="http://www.w3.org/2000/svg">
    <style type="text/css">
        .st0{fill-rule:evenodd;clip-rule:evenodd;fill:#24292D;}
        .st1{fill-rule:evenodd;clip-rule:evenodd;fill:#F16623;}
        .st2{fill:#F16623;}
        .st3{fill:#24292D;}
    </style>
    <g>
        <!-- Mavjud shakllar (paths) -->
        <path class="st0" d="M98,42.5L51.1,69.6c0,0-2.1-17,9.3-25.6c9.4-7.1,31.6-19,31.6-19"/>
        <path class="st1"
              d="M14.4,70.7c1.1,3.9,2.7,7.6,4.8,11.3c0.9,1.6,1.9,3.1,2.9,4.5L3.5,97.3c0,0-2-17,9.4-25.5 C13.3,71.5,13.8,71.1,14.4,70.7z"/>
        <path class="st0"
              d="M123.5,40.4c3.5,21-8.1,46.7-27.6,58c-25.1,14.5-57.2,5.9-71.7-19.2C9.7,54,18.3,21.9,43.4,7.4 c25.1-14.5,57.2-5.9,71.7,19.2c0.2,0.4,2.2,3.9,2.3,4.7L97.1,43c-0.4-0.8-1.7-4-2.1-4.7C86.9,24.3,68.4,18,54.4,26 c-14,8.1-20,28-11.9,42c8.1,14,28.8,20.6,42.7,12.6c4.5-2.6,12.9-8.9,16.6-18.4C106.9,49.1,111.8,45.1,123.5,40.4z"/>
        <path class="st2"
              d="M170.1,85.6h-12.3c-0.8,0-1.5-0.7-1.5-1.5v-68c0-0.8,0.7-1.5,1.5-1.5h12.3c0.8,0,1.5,0.7,1.5,1.5v68 C171.6,84.9,170.9,85.6,170.1,85.6z M202.7,26.9h-34.4c-0.8,0-1.5-0.7-1.5-1.5v-9.4c0-0.8,0.7-1.5,1.5-1.5h34.4 c0.8,0,1.5,0.7,1.5,1.5v9.4C204.2,26.3,203.5,26.9,202.7,26.9z M197.8,55.1h-29.6c-0.8,0-1.5-0.7-1.5-1.5v-8.9 c0-0.8,0.7-1.5,1.5-1.5h29.6c0.8,0,1.5,0.7,1.5,1.5v8.9C199.4,54.4,198.7,55.1,197.8,55.1z M202.7,85.6h-34.5 c-0.8,0-1.5-0.7-1.5-1.5v-9.3c0-0.8,0.7-1.5,1.5-1.5h34.5c0.8,0,1.5,0.7,1.5,1.5v9.3C204.2,84.9,203.6,85.6,202.7,85.6z"/>
        <path class="st3"
              d="M209.4,58.8c0-5.4,0.8-10.1,2.4-14.1s4-7.2,7-9.5c3.1-2.3,6.8-3.4,11.3-3.4c4.1,0,7.6,1.2,10.4,3.5 c2.8,2.4,5,5.6,6.6,9.7c1.6,4.1,2.7,8.7,3.3,13.8c0,0.1,0,0.1,0,0.2v1c0,0.1,0,0.1,0,0.2c-0.6,4.9-1.7,9.3-3.3,13.3 c-1.6,4-3.8,7.2-6.6,9.5c-2.8,2.4-6.3,3.5-10.5,3.5c-4.4,0-8.1-1.2-11.2-3.5c-3.1-2.3-5.4-5.5-7-9.5c-1.6-4-2.4-8.6-2.4-13.7V58.8z M224.2,59.8c0,2.7,0.3,5.2,0.9,7.5c0.6,2.2,1.6,4,3,5.3c1.4,1.3,3.3,2,5.7,2c2.3,0,4.3-0.5,5.8-1.6c1.5-1.1,2.6-2.5,3.4-4.4 c0.8-1.9,1.2-4,1.4-6.5c0,0,0-0.1,0-0.1l0-5c-0.1-2.1-0.3-4-0.8-5.6c-0.5-1.6-1.1-3-2-4.2s-1.9-2-3.2-2.6c-1.3-0.6-2.8-0.9-4.5-0.9 c-2.3,0-4.2,0.7-5.7,2c-1.4,1.3-2.5,3.1-3.1,5.4c-0.6,2.3-1,4.8-1,7.7V59.8z M244.1,10.6h11.8c0.8,0,1.5,0.7,1.5,1.5v71.9 c0,0.8-0.7,1.5-1.5,1.5h-10.5c-0.8,0-1.4-0.6-1.5-1.3L242.6,74c0-0.1,0-0.1,0-0.2V12.2C242.6,11.3,243.3,10.6,244.1,10.6z"/>
        <path class="st3"
              d="M303.3,61.9c0.9,0,1.6,0.7,1.6,1.6c-0.1,4.1-0.9,7.8-2.1,11.1c-1.4,3.7-3.6,6.7-6.5,8.8 c-2.9,2.1-6.6,3.2-11,3.2c-5.2,0-9.4-1.5-12.7-4.6c-3.2-3-4.9-8.1-4.9-15.1V34.3c0-0.8,0.7-1.5,1.5-1.5h11.7c0.8,0,1.5,0.7,1.5,1.5 v32.8c0,1.8,0.3,3.2,0.9,4.4c0.6,1.1,1.4,1.9,2.5,2.4c1.1,0.5,2.3,0.8,3.7,0.8c2.8,0,5.1-0.6,6.7-1.7c1.6-1.1,2.8-2.6,3.4-4.5 c0.5-1.5,0.9-3.2,1-5.1c0-0.8,0.7-1.4,1.5-1.4L303.3,61.9z M300.6,32.8h11.7c0.8,0,1.5,0.7,1.5,1.5v49.8c0,0.8-0.7,1.5-1.5,1.5 h-10.9c-0.8,0-1.5-0.6-1.5-1.4L299,72.9c0,0,0-0.1,0-0.1V34.3C299,33.5,299.7,32.8,300.6,32.8z"/>

        <!-- "Rise" so'zi -->
        <text x="320" y="85" class="st3" font-family="Arial" font-size="90" font-weight="bold">Rise</text>
    </g>
</svg>